# xmcd
#
# Track frame offsets: 
#        150
#        5165
#        16617
#        38609
#        51350
#        62641
#        73299
#        76065
#        96322
#        116050
#        133862
#        147397
#        169813
#        183947
#
# Disc length: 2607 seconds
#
# Revision: 0
# Processed by: cddbd v1.5.1PL2 Copyright (c) Steve Scherf et al.
# Submitted via: ExactAudioCopy v0.95a5
#
DISCID=c20a2d0e
DTITLE=Various Artist - The Gift - Soundtrack and Score
DYEAR=1900
DGENRE=Country
TTITLE0=Intro Score - Christopher Young
TTITLE1=Furnace Room Lullaby - Neko Case
TTITLE2=Great Divide - Willie Nelson
TTITLE3=Wastin' Time - Waylon Jennings
TTITLE4=Mamy Why - Loretta Lynn
TTITLE5=Everybody Wants To Go To Heaven - Loretta Lynn
TTITLE6=Violen Score - Christopher Young
TTITLE7=Beautiful Hits - Hasil Atkins
TTITLE8=Trouble Is A Lonesome Town - Lee Hazelwood
TTITLE9=In Case We Die - Amy Nelson
TTITLE10=I'm Alright - The Souvenirs
TTITLE11=If I Could Fly - Merle Haggard
TTITLE12=Pretty Girls - Neko Case
TTITLE13=Picture Of Me With Out You - George Jones
EXTD=
EXTT0=
EXTT1=
EXTT2=
EXTT3=
EXTT4=
EXTT5=
EXTT6=
EXTT7=
EXTT8=
EXTT9=
EXTT10=
EXTT11=
EXTT12=
EXTT13=
PLAYORDER=
